<svg width="256" height="256" viewBox="0 0 256 256" fill="none" xmlns="http://www.w3.org/2000/svg">
<g filter="url(#filter0_d_315_1577)">
<path d="M141.412 215.854C133.774 223.492 121.391 223.492 113.754 215.854L35.7845 137.887C28.1452 130.247 28.1452 117.861 35.7847 110.222L113.754 32.2557C121.392 24.6182 133.774 24.6182 141.411 32.2557L219.38 110.222C227.02 117.861 227.02 130.247 219.381 137.887L141.412 215.854Z" fill="#1C2545"/>
<path d="M192.347 124.054C192.347 159.826 163.355 188.818 127.583 188.818C91.8163 188.818 62.8182 159.826 62.8182 124.054C62.8182 88.2855 91.8163 59.2915 127.583 59.2915C163.355 59.2915 192.347 88.2855 192.347 124.054Z" fill="#FAFAFA"/>
<path d="M185.871 124.054C185.871 156.25 159.779 182.336 127.583 182.336C95.3924 182.336 69.2943 156.25 69.2943 124.054C69.2943 91.8614 95.3924 65.764 127.583 65.764C159.779 65.764 185.871 91.8614 185.871 124.054Z" fill="#FAFAFA"/>
<path d="M168.077 89.9205H88.0371C87.3164 89.9205 86.6255 90.2066 86.1164 90.7163C85.6068 91.2259 85.3206 91.9163 85.3206 92.6369V155.473C85.3206 156.194 85.6067 156.884 86.1164 157.394C86.6255 157.904 87.3164 158.19 88.0371 158.19H168.077C168.797 158.19 169.488 157.904 169.997 157.394C170.507 156.884 170.793 156.194 170.793 155.473V92.6369C170.793 91.9163 170.507 91.2259 169.997 90.7163C169.488 90.2066 168.797 89.9205 168.077 89.9205ZM121.085 134.92L109.224 147.868L105.24 144.156L115.472 133.109L105.24 121.973L109.224 118.26L121.085 131.299C121.531 131.796 121.777 132.441 121.777 133.109C121.777 133.778 121.531 134.422 121.085 134.92ZM151.236 146.6H123.62V141.167H151.236V146.6ZM165.36 108.754H90.7532V95.3535H165.36V108.754Z" fill="#1C2545"/>
<path d="M103.61 102.053C103.61 104.453 101.665 106.399 99.2645 106.399C96.8639 106.399 94.918 104.453 94.918 102.053C94.918 99.6527 96.8639 97.7068 99.2645 97.7068C101.665 97.7068 103.61 99.6527 103.61 102.053Z" fill="#1C2545"/>
<path d="M114.838 102.053C114.838 104.453 112.892 106.399 110.492 106.399C108.092 106.399 106.146 104.453 106.146 102.053C106.146 99.6527 108.092 97.7068 110.492 97.7068C112.892 97.7068 114.838 99.6527 114.838 102.053Z" fill="#1C2545"/>
<path d="M126.608 102.053C126.608 104.453 124.662 106.399 122.262 106.399C119.862 106.399 117.916 104.453 117.916 102.053C117.916 99.6527 119.862 97.7068 122.262 97.7068C124.662 97.7068 126.608 99.6527 126.608 102.053Z" fill="#1C2545"/>
</g>
<defs>
<filter id="filter0_d_315_1577" x="0.0550537" y="0.527588" width="255.055" height="255.055" filterUnits="userSpaceOnUse" color-interpolation-filters="sRGB">
<feFlood flood-opacity="0" result="BackgroundImageFix"/>
<feColorMatrix in="SourceAlpha" type="matrix" values="0 0 0 0 0 0 0 0 0 0 0 0 0 0 0 0 0 0 127 0" result="hardAlpha"/>
<feOffset dy="4"/>
<feGaussianBlur stdDeviation="15"/>
<feComposite in2="hardAlpha" operator="out"/>
<feColorMatrix type="matrix" values="0 0 0 0 0.065 0 0 0 0 0.2314 0 0 0 0 0.325 0 0 0 0.25 0"/>
<feBlend mode="normal" in2="BackgroundImageFix" result="effect1_dropShadow_315_1577"/>
<feBlend mode="normal" in="SourceGraphic" in2="effect1_dropShadow_315_1577" result="shape"/>
</filter>
</defs>
</svg>
