<svg width="256" height="256" viewBox="0 0 256 256" fill="none" xmlns="http://www.w3.org/2000/svg">
<g id="CyberSec dark" filter="url(#filter0_d_315_1578)">
<path id="diamond" d="M141.467 215.854C133.829 223.492 121.446 223.492 113.809 215.854L35.8396 137.887C28.2002 130.248 28.2003 117.861 35.8397 110.222L113.809 32.2557C121.447 24.6182 133.829 24.6182 141.466 32.2557L219.436 110.222C227.075 117.861 227.075 130.248 219.436 137.887L141.467 215.854Z" fill="#1C2545"/>
<path id="boredr" d="M192.402 124.054C192.402 159.826 163.41 188.818 127.638 188.818C91.8714 188.818 62.8732 159.826 62.8732 124.054C62.8732 88.2855 91.8714 59.2915 127.638 59.2915C163.41 59.2915 192.402 88.2855 192.402 124.054Z" fill="#FAFAFA"/>
<path id="inner" d="M185.926 124.054C185.926 156.25 159.834 182.336 127.638 182.336C95.4475 182.336 69.3493 156.25 69.3493 124.054C69.3493 91.8615 95.4475 65.7639 127.638 65.7639C159.834 65.7639 185.926 91.8615 185.926 124.054Z" fill="#1C2545"/>
<path id="Vector" fill-rule="evenodd" clip-rule="evenodd" d="M102.884 119.462H104.253L104.276 106.735C104.56 100.732 107.161 95.3513 111.192 91.4558L111.223 91.4244C115.33 87.4738 120.908 85.0441 127.015 85.0441C133.134 85.0441 138.726 87.4823 142.837 91.4558C146.943 95.4257 149.568 100.937 149.767 107.077L149.779 119.462H151.145C152.834 119.462 154.374 120.154 155.477 121.258L155.773 121.591C156.706 122.671 157.273 124.069 157.273 125.59V156.938C157.273 158.626 156.581 160.167 155.477 161.27C154.374 162.374 152.834 163.066 151.145 163.066H102.882C101.194 163.066 99.6529 162.374 98.5499 161.27C97.4464 160.167 96.7539 158.626 96.7539 156.938V125.59C96.7539 123.916 97.4433 122.388 98.5499 121.273C99.6529 120.154 101.194 119.462 102.882 119.462L102.884 119.462ZM127.015 130.585C129.279 130.585 131.115 132.421 131.115 134.686C131.115 136.476 129.968 137.997 128.369 138.557L129.064 141.747L131.116 151.15H122.915L124.966 141.747L125.661 138.557C124.062 137.997 122.915 136.476 122.915 134.686C122.915 132.421 124.751 130.585 127.016 130.585H127.015ZM111.602 119.462H142.425V107.193C142.272 103.082 140.5 99.3968 137.751 96.7385C134.971 94.0446 131.184 92.4004 127.013 92.4004C122.846 92.4004 119.061 94.0427 116.295 96.7181C113.563 99.3649 111.798 102.994 111.598 107.042L111.601 119.462H111.602Z" fill="#FAFAFA"/>
</g>
<defs>
<filter id="filter0_d_315_1578" x="0.110107" y="0.527588" width="255.055" height="255.055" filterUnits="userSpaceOnUse" color-interpolation-filters="sRGB">
<feFlood flood-opacity="0" result="BackgroundImageFix"/>
<feColorMatrix in="SourceAlpha" type="matrix" values="0 0 0 0 0 0 0 0 0 0 0 0 0 0 0 0 0 0 127 0" result="hardAlpha"/>
<feOffset dy="4"/>
<feGaussianBlur stdDeviation="15"/>
<feComposite in2="hardAlpha" operator="out"/>
<feColorMatrix type="matrix" values="0 0 0 0 0.065 0 0 0 0 0.2314 0 0 0 0 0.325 0 0 0 0.25 0"/>
<feBlend mode="normal" in2="BackgroundImageFix" result="effect1_dropShadow_315_1578"/>
<feBlend mode="normal" in="SourceGraphic" in2="effect1_dropShadow_315_1578" result="shape"/>
</filter>
</defs>
</svg>
