<svg width="256" height="256" viewBox="0 0 256 256" fill="none" xmlns="http://www.w3.org/2000/svg">
<g filter="url(#filter0_d_315_1570)">
<path d="M141.467 215.744C133.829 223.382 121.446 223.382 113.809 215.744L35.8396 137.777C28.2002 130.137 28.2003 117.751 35.8397 110.112L113.809 32.1456C121.447 24.5081 133.829 24.5081 141.466 32.1456L219.436 110.112C227.075 117.751 227.075 130.137 219.436 137.777L141.467 215.744Z" fill="#1C2545"/>
<path d="M192.402 123.944C192.402 159.716 163.41 188.707 127.638 188.707C91.8714 188.707 62.8732 159.716 62.8732 123.944C62.8732 88.1754 91.8714 59.1814 127.638 59.1814C163.41 59.1814 192.402 88.1754 192.402 123.944Z" fill="#FAFAFA"/>
<path d="M185.926 123.944C185.926 156.14 159.834 182.226 127.638 182.226C95.4475 182.226 69.3493 156.14 69.3493 123.944C69.3493 91.7514 95.4475 65.6537 127.638 65.6537C159.834 65.6537 185.926 91.7514 185.926 123.944Z" fill="#1C2545"/>
<path d="M127.326 91.4358C124.505 91.4358 122.139 93.4189 121.502 96.0532H98.4369V93.1171C98.44 92.3491 97.8197 91.7245 97.0517 91.7214H88.3863C87.6183 91.7245 86.9981 92.3491 87.0012 93.1171V101.782C87.003 102.547 87.6214 103.167 88.3863 103.17H97.0517C97.8166 103.167 98.435 102.547 98.4369 101.782V98.8384H115.114C105.649 103.379 99.1346 113.029 99.1346 124.247V126.564C96.5003 127.199 94.5142 129.567 94.5142 132.387C94.5142 135.69 97.228 138.404 100.531 138.404C103.834 138.404 106.536 135.69 106.536 132.387C106.536 129.563 104.554 127.193 101.916 126.561V124.247C101.916 112.444 109.854 102.601 120.693 99.7005L121.685 99.4373C122.512 101.767 124.722 103.457 127.327 103.457C129.931 103.457 132.144 101.767 132.974 99.4373L133.957 99.7005C144.798 102.602 152.746 112.444 152.746 124.247V126.561C150.108 127.193 148.125 129.564 148.125 132.387C148.125 135.69 150.828 138.404 154.131 138.404C157.434 138.404 160.136 135.69 160.136 132.387C160.136 129.563 158.154 127.193 155.516 126.561V124.247C155.516 113.03 149.003 103.38 139.536 98.8391H156.214V101.783L156.214 101.783C156.215 102.152 156.362 102.506 156.624 102.766C156.886 103.026 157.241 103.172 157.61 103.17H166.264C166.634 103.172 166.988 103.026 167.25 102.766C167.512 102.506 167.66 102.152 167.66 101.783V93.1171C167.662 92.7464 167.515 92.3907 167.253 92.1287C166.991 91.8667 166.635 91.7195 166.264 91.7214H157.61C157.239 91.7195 156.884 91.8667 156.622 92.1287C156.359 92.3907 156.212 92.7464 156.214 93.1171V96.0532L133.158 96.0538C132.52 93.4195 130.147 91.4364 127.327 91.4364L127.326 91.4358ZM127.326 94.2172C129.126 94.2172 130.558 95.6502 130.558 97.4495C130.558 99.2493 129.125 100.674 127.326 100.674C125.526 100.674 124.102 99.2493 124.102 97.4495C124.102 95.6496 125.526 94.2172 127.326 94.2172ZM89.7827 94.5053H95.6661V97.3246C95.6598 97.401 95.6598 97.4773 95.6661 97.5531V100.386H89.7827V94.5053ZM158.998 94.5053H164.879V100.386H158.998V97.5451C159.002 97.4873 159.002 97.429 158.998 97.3712V94.5053ZM127.337 110.73C127.292 110.729 127.247 110.731 127.201 110.735C126.719 110.78 126.296 111.072 126.082 111.507L109.646 144.368C109.435 144.797 109.458 145.304 109.709 145.712L116.902 157.509H115.006C114.238 157.512 113.617 158.137 113.62 158.905V168.061C113.617 168.829 114.238 169.455 115.006 169.458H139.645H139.644C140.015 169.459 140.371 169.313 140.633 169.05C140.895 168.788 141.042 168.432 141.04 168.061V158.905C141.042 158.534 140.895 158.178 140.633 157.916C140.371 157.654 140.015 157.508 139.644 157.509H137.759L144.952 145.712C145.199 145.303 145.219 144.795 145.004 144.368L128.568 111.507C128.337 111.037 127.861 110.736 127.338 110.73L127.337 110.73ZM125.938 118.007V137.04C123.674 137.66 121.986 139.729 121.986 142.182C121.986 145.118 124.391 147.53 127.326 147.53C130.262 147.53 132.674 145.117 132.674 142.182C132.674 139.732 130.985 137.666 128.722 137.043V118.024L142.17 144.923L134.502 157.51H120.149L112.481 144.923L125.938 118.007ZM100.53 129.163C102.33 129.163 103.754 130.587 103.754 132.387C103.754 134.187 102.33 135.622 100.53 135.622C98.7303 135.622 97.2979 134.187 97.2979 132.387C97.2979 130.587 98.7309 129.163 100.53 129.163ZM154.13 129.163C155.929 129.163 157.365 130.587 157.365 132.387C157.365 134.187 155.929 135.622 154.13 135.622C152.33 135.622 150.897 134.187 150.897 132.387C150.897 130.587 152.33 129.163 154.13 129.163ZM127.326 139.615C128.758 139.615 129.892 140.749 129.892 142.182C129.892 143.614 128.758 144.748 127.326 144.748C125.894 144.748 124.77 143.614 124.77 142.182C124.77 140.749 125.894 139.615 127.326 139.615ZM116.401 160.292H138.259V166.678H116.401V160.292Z" fill="#FAFAFA"/>
</g>
<defs>
<filter id="filter0_d_315_1570" x="0.110107" y="0.41748" width="255.055" height="255.055" filterUnits="userSpaceOnUse" color-interpolation-filters="sRGB">
<feFlood flood-opacity="0" result="BackgroundImageFix"/>
<feColorMatrix in="SourceAlpha" type="matrix" values="0 0 0 0 0 0 0 0 0 0 0 0 0 0 0 0 0 0 127 0" result="hardAlpha"/>
<feOffset dy="4"/>
<feGaussianBlur stdDeviation="15"/>
<feComposite in2="hardAlpha" operator="out"/>
<feColorMatrix type="matrix" values="0 0 0 0 0.065 0 0 0 0 0.2314 0 0 0 0 0.325 0 0 0 0.25 0"/>
<feBlend mode="normal" in2="BackgroundImageFix" result="effect1_dropShadow_315_1570"/>
<feBlend mode="normal" in="SourceGraphic" in2="effect1_dropShadow_315_1570" result="shape"/>
</filter>
</defs>
</svg>
