<svg width="256" height="256" viewBox="0 0 256 256" fill="none" xmlns="http://www.w3.org/2000/svg">
<g filter="url(#filter0_d_315_1574)">
<path d="M141.467 215.799C133.829 223.437 121.446 223.437 113.809 215.799L35.8396 137.832C28.2002 130.192 28.2003 117.806 35.8397 110.167L113.809 32.2007C121.447 24.5632 133.829 24.5632 141.466 32.2006L219.436 110.167C227.075 117.806 227.075 130.192 219.436 137.832L141.467 215.799Z" fill="#1C2545"/>
<path d="M192.402 123.999C192.402 159.771 163.41 188.762 127.638 188.762C91.8714 188.762 62.8732 159.771 62.8732 123.999C62.8732 88.2305 91.8714 59.2365 127.638 59.2365C163.41 59.2365 192.402 88.2305 192.402 123.999Z" fill="#FAFAFA"/>
<path d="M185.926 123.999C185.926 156.195 159.834 182.281 127.638 182.281C95.4475 182.281 69.3493 156.195 69.3493 123.999C69.3493 91.8065 95.4475 65.7088 127.638 65.7088C159.834 65.7088 185.926 91.8065 185.926 123.999Z" fill="#1C2545"/>
<path d="M82.1248 124.526C82.1248 127.745 84.7245 130.373 87.9523 130.373H96.2947V138.692C96.2947 141.917 98.906 144.533 102.141 144.533C105.368 144.533 107.981 141.925 107.981 138.692V130.366H116.312C119.535 130.366 122.159 127.743 122.159 124.515C122.159 121.281 119.533 118.671 116.312 118.671H107.981V110.334C107.981 107.118 105.37 104.495 102.141 104.495C98.911 104.495 96.2947 107.111 96.2947 110.334V118.671H87.9523C84.7377 118.673 82.1248 121.284 82.1248 124.526Z" fill="#FAFAFA"/>
<path d="M166.561 130.707C170.196 130.707 173.15 127.739 173.15 124.128C173.15 120.49 170.196 117.534 166.561 117.534C162.927 117.534 159.977 120.492 159.977 124.128C159.98 127.741 162.928 130.707 166.561 130.707Z" fill="#FAFAFA"/>
<path d="M160.465 112.235C160.465 108.601 157.519 105.653 153.871 105.653C150.24 105.653 147.289 108.601 147.289 112.235C147.289 115.876 150.238 118.82 153.871 118.82C157.518 118.82 160.465 115.877 160.465 112.235Z" fill="#FAFAFA"/>
<path d="M161.268 136.795C161.268 140.43 158.322 143.378 154.685 143.378C151.051 143.378 148.104 140.43 148.104 136.795C148.104 133.161 151.051 130.214 154.685 130.214C158.322 130.214 161.268 133.161 161.268 136.795Z" fill="#FAFAFA"/>
<path d="M148.589 124.922C148.589 128.554 145.644 131.497 142.013 131.497C138.383 131.497 135.439 128.554 135.439 124.922C135.439 121.291 138.384 118.348 142.013 118.348C145.644 118.348 148.589 121.291 148.589 124.922Z" fill="#FAFAFA"/>
</g>
<defs>
<filter id="filter0_d_315_1574" x="0.110107" y="0.472534" width="255.055" height="255.055" filterUnits="userSpaceOnUse" color-interpolation-filters="sRGB">
<feFlood flood-opacity="0" result="BackgroundImageFix"/>
<feColorMatrix in="SourceAlpha" type="matrix" values="0 0 0 0 0 0 0 0 0 0 0 0 0 0 0 0 0 0 127 0" result="hardAlpha"/>
<feOffset dy="4"/>
<feGaussianBlur stdDeviation="15"/>
<feComposite in2="hardAlpha" operator="out"/>
<feColorMatrix type="matrix" values="0 0 0 0 0.065 0 0 0 0 0.2314 0 0 0 0 0.325 0 0 0 0.25 0"/>
<feBlend mode="normal" in2="BackgroundImageFix" result="effect1_dropShadow_315_1574"/>
<feBlend mode="normal" in="SourceGraphic" in2="effect1_dropShadow_315_1574" result="shape"/>
</filter>
</defs>
</svg>
