<svg width="256" height="256" viewBox="0 0 256 256" fill="none" xmlns="http://www.w3.org/2000/svg">
<g id="icpc dark" filter="url(#filter0_d_315_1576)">
<path id="path52736" d="M141.356 215.854C133.719 223.492 121.336 223.492 113.699 215.854L35.7295 137.887C28.0901 130.247 28.0902 117.861 35.7296 110.222L113.699 32.2557C121.337 24.6182 133.719 24.6182 141.356 32.2557L219.325 110.222C226.965 117.861 226.965 130.247 219.326 137.887L141.356 215.854Z" fill="#1C2545"/>
<path id="path52738" d="M192.292 124.054C192.292 159.826 163.299 188.818 127.528 188.818C91.7612 188.818 62.7631 159.826 62.7631 124.054C62.7631 88.2855 91.7612 59.2915 127.528 59.2915C163.299 59.2915 192.292 88.2855 192.292 124.054Z" fill="#0492D2"/>
<path id="path52740" d="M185.816 124.054C185.816 156.25 159.724 182.336 127.528 182.336C95.3374 182.336 69.2392 156.25 69.2392 124.054C69.2392 91.8615 95.3374 65.764 127.528 65.764C159.724 65.764 185.816 91.8615 185.816 124.054Z" fill="#1C2545"/>
<path id="rect52874" d="M107.034 89.2065H101.075C96.2382 89.2065 92.3174 93.1273 92.3174 97.9637V135.497C92.3174 140.334 96.2382 144.254 101.075 144.254H107.034C111.87 144.254 115.791 140.334 115.791 135.497V97.9637C115.791 93.1273 111.87 89.2065 107.034 89.2065Z" fill="#0492D2"/>
<path id="rect53252" d="M130.774 105.525H124.281C119.592 105.525 115.791 109.326 115.791 114.015V150.404C115.791 155.093 119.592 158.894 124.281 158.894H130.774C135.463 158.894 139.265 155.093 139.265 150.404V114.015C139.265 109.326 135.463 105.525 130.774 105.525Z" fill="#FDD005"/>
<path id="rect53254" d="M154.247 95.2712H147.754C143.065 95.2712 139.264 99.0724 139.264 103.761V140.15C139.264 144.839 143.065 148.64 147.754 148.64H154.247C158.936 148.64 162.737 144.839 162.737 140.15V103.761C162.737 99.0724 158.936 95.2712 154.247 95.2712Z" fill="#FD1B14"/>
</g>
<defs>
<filter id="filter0_d_315_1576" x="0" y="0.527588" width="255.055" height="255.055" filterUnits="userSpaceOnUse" color-interpolation-filters="sRGB">
<feFlood flood-opacity="0" result="BackgroundImageFix"/>
<feColorMatrix in="SourceAlpha" type="matrix" values="0 0 0 0 0 0 0 0 0 0 0 0 0 0 0 0 0 0 127 0" result="hardAlpha"/>
<feOffset dy="4"/>
<feGaussianBlur stdDeviation="15"/>
<feComposite in2="hardAlpha" operator="out"/>
<feColorMatrix type="matrix" values="0 0 0 0 0.065 0 0 0 0 0.2314 0 0 0 0 0.325 0 0 0 0.25 0"/>
<feBlend mode="normal" in2="BackgroundImageFix" result="effect1_dropShadow_315_1576"/>
<feBlend mode="normal" in="SourceGraphic" in2="effect1_dropShadow_315_1576" result="shape"/>
</filter>
</defs>
</svg>
