<svg width="256" height="256" viewBox="0 0 256 256" fill="none" xmlns="http://www.w3.org/2000/svg">
<g id="iot dark" filter="url(#filter0_d_315_1569)">
<path id="diamond" d="M141.412 215.744C133.774 223.382 121.391 223.382 113.754 215.744L35.7845 137.777C28.1452 130.137 28.1452 117.751 35.7847 110.112L113.754 32.1456C121.392 24.5081 133.774 24.5081 141.411 32.1456L219.38 110.112C227.02 117.751 227.02 130.137 219.381 137.777L141.412 215.744Z" fill="#1C2545"/>
<path id="boredr" d="M192.347 123.944C192.347 159.716 163.355 188.707 127.583 188.707C91.8163 188.707 62.8182 159.716 62.8182 123.944C62.8182 88.1754 91.8163 59.1814 127.583 59.1814C163.355 59.1814 192.347 88.1754 192.347 123.944Z" fill="#FAFAFA"/>
<path id="inner" d="M185.871 123.944C185.871 156.14 159.779 182.226 127.583 182.226C95.3925 182.226 69.2943 156.14 69.2943 123.944C69.2943 91.7514 95.3925 65.6537 127.583 65.6537C159.779 65.6537 185.871 91.7514 185.871 123.944Z" fill="#1C2545"/>
<path id="Vector" d="M151.89 116.022C151.943 109.555 149.426 103.332 144.892 98.7216C140.358 94.111 134.177 91.4905 127.711 91.4366C121.244 91.3828 115.021 93.8999 110.411 98.4343C105.8 102.969 103.18 109.149 103.126 115.615V119.801C98.4961 120.338 94.2462 122.622 91.2443 126.188C88.2424 129.753 86.7151 134.33 86.9745 138.983C87.2339 143.637 89.2604 148.016 92.6399 151.225C96.0194 154.435 100.497 156.233 105.158 156.252H147.826C152.865 156.257 157.726 154.39 161.465 151.012C165.204 147.635 167.555 142.989 168.062 137.976C168.568 132.962 167.194 127.94 164.205 123.883C161.217 119.826 156.828 117.024 151.89 116.022Z" fill="#FAFAFA"/>
<path id="Vector_2" d="M127.508 146.093C126.704 146.093 125.919 145.854 125.25 145.408C124.582 144.961 124.061 144.327 123.754 143.584C123.446 142.842 123.366 142.025 123.522 141.236C123.679 140.448 124.066 139.724 124.635 139.156C125.203 138.587 125.927 138.2 126.715 138.043C127.503 137.887 128.321 137.967 129.063 138.275C129.806 138.582 130.44 139.103 130.887 139.771C131.333 140.44 131.572 141.225 131.572 142.029C131.572 143.107 131.143 144.14 130.381 144.902C129.619 145.665 128.586 146.093 127.508 146.093Z" fill="#1C2545"/>
<path id="Vector_3" d="M117.45 134.004C118.771 132.683 120.339 131.635 122.064 130.92C123.79 130.205 125.64 129.837 127.508 129.837C129.376 129.837 131.225 130.205 132.951 130.92C134.676 131.635 136.244 132.683 137.565 134.004C137.898 134.392 138.072 134.892 138.052 135.404C138.032 135.915 137.82 136.4 137.459 136.762C137.097 137.124 136.612 137.336 136.1 137.355C135.589 137.375 135.089 137.201 134.7 136.868C133.757 135.922 132.636 135.172 131.401 134.66C130.167 134.147 128.844 133.884 127.508 133.884C126.171 133.884 124.848 134.147 123.614 134.66C122.38 135.172 121.259 135.922 120.315 136.868C119.926 137.201 119.426 137.375 118.915 137.355C118.404 137.336 117.919 137.124 117.557 136.762C117.195 136.4 116.983 135.915 116.963 135.404C116.943 134.892 117.117 134.392 117.45 134.004Z" fill="#1C2545"/>
<path id="Vector_4" d="M140.43 131.138C137.001 127.714 132.354 125.79 127.508 125.79C122.662 125.79 118.014 127.714 114.585 131.138C114.203 131.521 113.684 131.736 113.143 131.736C112.602 131.736 112.083 131.521 111.7 131.138C111.318 130.756 111.103 130.237 111.103 129.696C111.103 129.155 111.318 128.636 111.7 128.253C113.776 126.177 116.24 124.529 118.952 123.406C121.665 122.282 124.572 121.703 127.508 121.703C130.444 121.703 133.351 122.282 136.063 123.406C138.775 124.529 141.24 126.177 143.315 128.253C143.698 128.636 143.913 129.155 143.913 129.696C143.913 130.237 143.698 130.756 143.315 131.138C142.933 131.521 142.414 131.736 141.873 131.736C141.332 131.736 140.813 131.521 140.43 131.138Z" fill="#1C2545"/>
</g>
<defs>
<filter id="filter0_d_315_1569" x="0.0550537" y="0.41748" width="255.055" height="255.055" filterUnits="userSpaceOnUse" color-interpolation-filters="sRGB">
<feFlood flood-opacity="0" result="BackgroundImageFix"/>
<feColorMatrix in="SourceAlpha" type="matrix" values="0 0 0 0 0 0 0 0 0 0 0 0 0 0 0 0 0 0 127 0" result="hardAlpha"/>
<feOffset dy="4"/>
<feGaussianBlur stdDeviation="15"/>
<feComposite in2="hardAlpha" operator="out"/>
<feColorMatrix type="matrix" values="0 0 0 0 0.065 0 0 0 0 0.2314 0 0 0 0 0.325 0 0 0 0.25 0"/>
<feBlend mode="normal" in2="BackgroundImageFix" result="effect1_dropShadow_315_1569"/>
<feBlend mode="normal" in="SourceGraphic" in2="effect1_dropShadow_315_1569" result="shape"/>
</filter>
</defs>
</svg>
