<svg width="256" height="256" viewBox="0 0 256 256" fill="none" xmlns="http://www.w3.org/2000/svg">
<g filter="url(#filter0_d_315_1573)">
<path d="M141.412 215.799C133.774 223.437 121.391 223.437 113.754 215.799L35.7845 137.832C28.1452 130.192 28.1452 117.806 35.7847 110.167L113.754 32.2007C121.392 24.5632 133.774 24.5632 141.411 32.2006L219.38 110.167C227.02 117.806 227.02 130.192 219.381 137.832L141.412 215.799Z" fill="#1C2545"/>
<path d="M192.347 123.999C192.347 159.771 163.355 188.762 127.583 188.762C91.8163 188.762 62.8182 159.771 62.8182 123.999C62.8182 88.2305 91.8163 59.2365 127.583 59.2365C163.355 59.2365 192.347 88.2305 192.347 123.999Z" fill="#FAFAFA"/>
<path d="M185.871 123.999C185.871 156.195 159.779 182.281 127.583 182.281C95.3924 182.281 69.2943 156.195 69.2943 123.999C69.2943 91.8065 95.3924 65.7088 127.583 65.7088C159.779 65.7088 185.871 91.8065 185.871 123.999Z" fill="#1C2545"/>
<path d="M127.517 113.72C127.517 114.669 126.793 115.449 125.867 115.538L125.692 115.546H108.653C103.611 115.546 99.5249 111.459 99.5249 106.418C99.5249 105.409 100.342 104.592 101.35 104.592C102.359 104.592 103.176 105.409 103.176 106.418C103.176 109.356 105.49 111.754 108.395 111.889L108.653 111.895H125.692C126.7 111.895 127.517 112.712 127.517 113.72L127.517 113.72Z" fill="#FAFAFA"/>
<path d="M127.517 135.627C127.517 134.678 126.793 133.899 125.867 133.81L125.692 133.802H108.653C103.611 133.802 99.5249 137.888 99.5249 142.93C99.5249 143.938 100.342 144.755 101.35 144.755C102.359 144.755 103.176 143.938 103.176 142.93C103.176 139.992 105.49 137.594 108.395 137.459L108.653 137.453H125.692C126.7 137.453 127.517 136.636 127.517 135.627L127.517 135.627Z" fill="#FAFAFA"/>
<path d="M131.168 144.147C131.168 143.198 130.444 142.418 129.519 142.329L129.343 142.321H120.823C115.782 142.321 111.695 146.407 111.695 151.449C111.695 152.457 112.512 153.274 113.521 153.274C114.53 153.274 115.347 152.457 115.347 151.449C115.347 148.511 117.661 146.113 120.565 145.978L120.823 145.972H129.343C130.351 145.972 131.168 145.155 131.168 144.147L131.168 144.147ZM131.168 105.201C131.168 106.15 130.444 106.929 129.519 107.018L129.343 107.026H120.823C115.782 107.026 111.695 102.94 111.695 97.8985C111.695 96.89 112.512 96.0729 113.521 96.0729C114.53 96.0729 115.347 96.89 115.347 97.8985C115.347 100.836 117.661 103.235 120.565 103.369L120.823 103.375H129.343C130.351 103.375 131.168 104.192 131.168 105.201L131.168 105.201Z" fill="#FAFAFA"/>
<path d="M133.602 124.674C133.602 125.623 132.878 126.402 131.953 126.491L131.777 126.499H100.133C99.1249 126.499 98.3079 125.682 98.3079 124.674C98.3079 123.725 99.0319 122.945 99.9575 122.856L100.133 122.848H131.777C132.785 122.848 133.602 123.665 133.602 124.674Z" fill="#FAFAFA"/>
<path d="M99.525 124.674C99.525 121.649 97.0732 119.197 94.0483 119.197C91.0234 119.197 88.5716 121.649 88.5716 124.674C88.5716 127.699 91.0234 130.15 94.0483 130.15C97.0732 130.15 99.525 127.699 99.525 124.674ZM95.8739 124.674C95.8739 125.682 95.0569 126.499 94.0483 126.499C93.0397 126.499 92.2227 125.682 92.2227 124.674C92.2227 123.665 93.0397 122.848 94.0483 122.848C95.0569 122.848 95.8739 123.665 95.8739 124.674Z" fill="#FAFAFA"/>
<path d="M106.828 147.798C106.828 144.773 104.376 142.321 101.351 142.321C98.3259 142.321 95.8741 144.773 95.8741 147.798C95.8741 150.823 98.3259 153.275 101.351 153.275C104.376 153.275 106.828 150.823 106.828 147.798ZM103.176 147.798C103.176 148.806 102.359 149.623 101.351 149.623C100.342 149.623 99.5252 148.806 99.5252 147.798C99.5252 146.789 100.342 145.972 101.351 145.972C102.359 145.972 103.176 146.789 103.176 147.798Z" fill="#FAFAFA"/>
<path d="M106.828 102.767C106.828 99.7418 104.376 97.2899 101.351 97.2899C98.3259 97.2899 95.8741 99.7418 95.8741 102.767C95.8741 105.792 98.3259 108.243 101.351 108.243C104.376 108.243 106.828 105.792 106.828 102.767ZM103.176 102.767C103.176 103.775 102.359 104.592 101.351 104.592C100.342 104.592 99.5252 103.775 99.5252 102.767C99.5252 101.758 100.342 100.941 101.351 100.941C102.359 100.941 103.176 101.758 103.176 102.767Z" fill="#FAFAFA"/>
<path d="M117.781 93.0304C117.781 90.0055 115.329 87.5536 112.304 87.5536C109.279 87.5536 106.827 90.0055 106.827 93.0304C106.827 96.0553 109.279 98.5071 112.304 98.5071C115.329 98.5071 117.781 96.0553 117.781 93.0304ZM114.13 93.0304C114.13 94.0389 113.313 94.856 112.304 94.856C111.296 94.856 110.479 94.0389 110.479 93.0304C110.479 92.0218 111.296 91.2048 112.304 91.2048C113.313 91.2048 114.13 92.0218 114.13 93.0304Z" fill="#FAFAFA"/>
<path d="M117.781 156.317C117.781 153.292 115.329 150.84 112.304 150.84C109.279 150.84 106.827 153.292 106.827 156.317C106.827 159.342 109.279 161.794 112.304 161.794C115.329 161.794 117.781 159.342 117.781 156.317ZM114.13 156.317C114.13 157.326 113.313 158.143 112.304 158.143C111.296 158.143 110.479 157.326 110.479 156.317C110.479 155.309 111.296 154.491 112.304 154.491C113.313 154.491 114.13 155.309 114.13 156.317Z" fill="#FAFAFA"/>
<path d="M145.773 124.674C145.773 125.623 145.049 126.402 144.123 126.491L143.947 126.499H137.862C136.854 126.499 136.037 125.682 136.037 124.674C136.037 123.725 136.761 122.945 137.686 122.856L137.862 122.848H143.947C144.956 122.848 145.773 123.665 145.773 124.674Z" fill="#FAFAFA"/>
<path d="M153.075 124.674C153.075 125.623 152.351 126.402 151.426 126.491L151.25 126.499H150.033C149.024 126.499 148.207 125.682 148.207 124.674C148.207 123.725 148.931 122.945 149.857 122.856L150.033 122.848H151.25C152.258 122.848 153.075 123.665 153.075 124.674Z" fill="#FAFAFA"/>
<path d="M140.905 113.72C140.905 114.669 140.181 115.449 139.255 115.538L139.079 115.546H132.994C131.985 115.546 131.168 114.729 131.168 113.72C131.168 112.771 131.892 111.992 132.818 111.903L132.994 111.895H139.079C140.088 111.895 140.905 112.712 140.905 113.72Z" fill="#FAFAFA"/>
<path d="M148.207 113.72C148.207 114.669 147.483 115.449 146.557 115.538L146.381 115.546H145.164C144.156 115.546 143.339 114.729 143.339 113.72C143.339 112.771 144.063 111.992 144.989 111.903L145.164 111.895H146.381C147.39 111.895 148.207 112.712 148.207 113.72Z" fill="#FAFAFA"/>
<path d="M140.905 135.627C140.905 136.576 140.181 137.356 139.255 137.445L139.079 137.453H132.994C131.985 137.453 131.168 136.636 131.168 135.627C131.168 134.678 131.892 133.899 132.818 133.81L132.994 133.802H139.079C140.088 133.802 140.905 134.619 140.905 135.627Z" fill="#FAFAFA"/>
<path d="M148.207 135.627C148.207 136.576 147.483 137.356 146.557 137.445L146.381 137.453H145.164C144.156 137.453 143.339 136.636 143.339 135.627C143.339 134.678 144.063 133.899 144.989 133.81L145.164 133.802H146.381C147.39 133.802 148.207 134.619 148.207 135.627Z" fill="#FAFAFA"/>
<path d="M139.079 144.755C139.079 145.704 138.355 146.483 137.43 146.572L137.254 146.581H136.037C135.028 146.581 134.211 145.764 134.211 144.755C134.211 143.806 134.935 143.027 135.861 142.938L136.037 142.929H137.254C138.262 142.929 139.079 143.746 139.079 144.755Z" fill="#FAFAFA"/>
<path d="M139.079 105.81C139.079 106.758 138.355 107.538 137.43 107.627L137.254 107.635H136.037C135.028 107.635 134.211 106.818 134.211 105.81C134.211 104.861 134.935 104.081 135.861 103.992L136.037 103.984H137.254C138.262 103.984 139.079 104.801 139.079 105.81Z" fill="#FAFAFA"/>
<path d="M125.692 147.189C126.64 147.189 127.42 147.913 127.509 148.839L127.517 149.015V151.449C127.517 155.723 130.907 159.206 135.144 159.355L135.428 159.36H136.304C138.987 159.36 141.162 157.185 141.162 154.502C141.162 154.164 141.127 153.826 141.056 153.496L140.975 153.167C140.698 152.198 141.259 151.187 142.229 150.911C143.198 150.634 144.209 151.195 144.486 152.165C144.702 152.925 144.813 153.711 144.813 154.502C144.813 159.104 141.161 162.852 136.597 163.006L136.304 163.011H135.428C129.152 163.011 124.044 158.012 123.871 151.778L123.866 151.449V149.015C123.866 148.006 124.683 147.189 125.691 147.189L125.692 147.189Z" fill="#FAFAFA"/>
<path d="M157.385 143.538C158.393 143.565 159.188 144.405 159.161 145.412L159.145 145.754L159.114 146.175L159.065 146.67C159.035 146.934 158.998 147.224 158.952 147.535C158.721 149.091 158.34 150.649 157.765 152.123C156.812 154.566 155.421 156.542 153.48 157.836C151.913 158.88 149.263 159.076 145.334 158.572L144.404 158.443C144.246 158.42 144.085 158.395 143.923 158.369L142.923 158.204C142.753 158.174 142.58 158.145 142.407 158.113C141.414 157.933 140.756 156.984 140.935 155.992C141.114 154.999 142.064 154.341 143.056 154.52L143.499 154.598L144.353 154.74L145.164 154.861C145.295 154.88 145.425 154.898 145.552 154.915L146.296 155.006C146.777 155.061 147.228 155.103 147.648 155.133L148.254 155.168L148.814 155.186C150.154 155.209 151.048 155.069 151.455 154.797C152.692 153.973 153.661 152.598 154.363 150.797C154.828 149.603 155.147 148.304 155.34 147.001C155.391 146.657 155.43 146.333 155.459 146.034L155.501 145.516L155.511 145.313C155.538 144.305 156.378 143.511 157.385 143.538L157.385 143.538Z" fill="#FAFAFA"/>
<path d="M159.326 132.639C160.304 132.394 161.296 132.989 161.54 133.967C163.394 141.385 161.276 146.152 155.201 147.164C154.206 147.329 153.266 146.658 153.1 145.663C152.934 144.669 153.606 143.728 154.6 143.563C158.262 142.952 159.388 140.417 157.997 134.852C157.753 133.874 158.348 132.883 159.326 132.638L159.326 132.639Z" fill="#FAFAFA"/>
<path d="M159.83 113.526C160.61 112.887 161.76 113.002 162.398 113.782C165.865 118.018 166.863 120.911 166.453 124.863C166.147 127.812 163.498 131.343 158.552 135.771C157.801 136.444 156.647 136.38 155.974 135.629C155.302 134.877 155.366 133.723 156.117 133.051C160.419 129.199 162.64 126.239 162.821 124.486C163.125 121.56 162.454 119.615 159.573 116.094C158.935 115.314 159.05 114.164 159.83 113.525L159.83 113.526Z" fill="#FAFAFA"/>
<path d="M158.545 117.034C159.157 117.322 159.872 117.049 160.142 116.424C161.608 113.03 161.734 110.948 160.772 108.406C160.054 106.51 157.735 104.629 153.788 102.55C153.189 102.235 152.462 102.475 152.165 103.086C151.868 103.698 152.113 104.45 152.713 104.766C156.146 106.574 158.09 108.15 158.516 109.277C159.229 111.159 159.144 112.56 157.926 115.38C157.655 116.005 157.932 116.745 158.545 117.034L158.545 117.034Z" fill="#FAFAFA"/>
<path d="M143.228 92.5694C150.142 89.6069 155.19 93.6458 157.879 103.504C158.144 104.476 157.57 105.48 156.598 105.745C155.625 106.011 154.621 105.437 154.356 104.464C152.176 96.4719 149.112 94.0202 144.666 95.926C143.739 96.3226 142.666 95.8934 142.269 94.967C141.872 94.04 142.301 92.9669 143.228 92.5696L143.228 92.5694Z" fill="#FAFAFA"/>
<path d="M129.668 86.5696C135.75 83.1622 143.068 85.3722 146.768 92.1564C147.251 93.0413 146.924 94.1504 146.039 94.6332C145.154 95.116 144.045 94.7894 143.562 93.9045C140.825 88.8869 135.742 87.3519 131.453 89.7549C130.861 90.0863 130.129 90.8028 129.309 91.9111C128.223 93.3781 127.604 95.1344 127.526 96.9518L127.518 97.3417V99.1156C127.518 100.124 126.701 100.941 125.692 100.941C124.743 100.941 123.964 100.217 123.875 99.2915L123.867 99.1156V97.3417C123.867 94.6047 124.746 91.9397 126.374 89.7391C127.476 88.251 128.557 87.1923 129.668 86.5695L129.668 86.5696Z" fill="#FAFAFA"/>
</g>
<defs>
<filter id="filter0_d_315_1573" x="0.0550537" y="0.472534" width="255.055" height="255.055" filterUnits="userSpaceOnUse" color-interpolation-filters="sRGB">
<feFlood flood-opacity="0" result="BackgroundImageFix"/>
<feColorMatrix in="SourceAlpha" type="matrix" values="0 0 0 0 0 0 0 0 0 0 0 0 0 0 0 0 0 0 127 0" result="hardAlpha"/>
<feOffset dy="4"/>
<feGaussianBlur stdDeviation="15"/>
<feComposite in2="hardAlpha" operator="out"/>
<feColorMatrix type="matrix" values="0 0 0 0 0.065 0 0 0 0 0.2314 0 0 0 0 0.325 0 0 0 0.25 0"/>
<feBlend mode="normal" in2="BackgroundImageFix" result="effect1_dropShadow_315_1573"/>
<feBlend mode="normal" in="SourceGraphic" in2="effect1_dropShadow_315_1573" result="shape"/>
</filter>
</defs>
</svg>
