<svg width="256" height="256" viewBox="0 0 256 256" fill="none" xmlns="http://www.w3.org/2000/svg">
<g filter="url(#filter0_d_315_1568)">
<path d="M141.356 215.744C133.719 223.382 121.336 223.382 113.699 215.744L35.7295 137.777C28.0901 130.137 28.0902 117.751 35.7296 110.112L113.699 32.1456C121.337 24.5081 133.719 24.5081 141.356 32.1456L219.325 110.112C226.965 117.751 226.965 130.137 219.326 137.777L141.356 215.744Z" fill="#1C2545"/>
<path d="M192.292 123.944C192.292 159.716 163.3 188.708 127.528 188.708C91.7612 188.708 62.7631 159.716 62.7631 123.944C62.7631 88.1754 91.7612 59.1814 127.528 59.1814C163.3 59.1814 192.292 88.1754 192.292 123.944Z" fill="#FAFAFA"/>
<path d="M185.816 123.944C185.816 156.14 159.724 182.226 127.528 182.226C95.3374 182.226 69.2392 156.14 69.2392 123.944C69.2392 91.7512 95.3374 65.6537 127.528 65.6537C159.724 65.6537 185.816 91.7512 185.816 123.944Z" fill="#1C2545"/>
<path d="M140.181 98.6335H114.874C112.254 98.6335 110.129 100.759 110.129 103.379V144.502C110.129 147.122 112.254 149.247 114.874 149.247H140.181C142.801 149.247 144.927 147.122 144.927 144.502V103.379C144.927 100.759 142.801 98.6335 140.181 98.6335ZM132.273 142.831C132.273 143.79 131.56 144.502 130.691 144.502H124.275C123.494 144.502 122.783 143.79 122.783 142.92C122.783 142.05 123.495 141.339 124.364 141.339H130.691C131.561 141.339 132.273 142.051 132.273 142.831ZM138.6 136.594H116.456V104.96H138.6V136.594Z" fill="#FAFAFA"/>
<path d="M88.1636 123.999C90.2725 124.39 91.7761 125.249 92.6744 126.576C93.6118 127.904 94.0804 129.818 94.0804 132.317V138.937C94.0804 140.577 94.3148 141.768 94.7836 142.51C95.2524 143.252 96.1116 143.623 97.3612 143.623H102.809V149.247H96.7168C93.2019 149.247 90.7609 148.485 89.394 146.962C88.0662 145.439 87.4022 143.233 87.4022 140.343V131.731C87.4022 130.091 87.1485 128.861 86.6409 128.041C86.1333 127.182 85.2741 126.752 84.0633 126.752H80.8998V121.128H84.0633C85.274 121.128 86.1332 120.718 86.6409 119.898C87.1485 119.039 87.4022 117.809 87.4022 116.208V107.538C87.4022 104.648 88.0662 102.441 89.394 100.918C90.7609 99.3951 93.2019 98.6335 96.7168 98.6335H102.809V104.257H97.3612C96.1115 104.257 95.2523 104.628 94.7836 105.37C94.3148 106.073 94.0804 107.264 94.0804 108.944V115.563C94.0804 118.063 93.6118 119.976 92.6744 121.304C91.7761 122.632 90.2725 123.53 88.1636 123.999Z" fill="#FAFAFA"/>
<path d="M166.892 123.882C164.783 123.491 163.259 122.632 162.322 121.304C161.385 119.976 160.916 118.063 160.916 115.563V108.944C160.916 107.303 160.682 106.112 160.213 105.37C159.744 104.628 158.885 104.257 157.635 104.257H152.246V98.6335H158.28C160.037 98.6335 161.502 98.8289 162.673 99.2197C163.884 99.6104 164.841 100.177 165.544 100.918C166.286 101.66 166.813 102.598 167.126 103.73C167.438 104.824 167.595 106.093 167.595 107.538V116.149C167.595 117.79 167.848 119.039 168.356 119.898C168.864 120.719 169.723 121.129 170.934 121.129H174.156V126.752H170.934C169.723 126.752 168.864 127.182 168.356 128.041C167.848 128.861 167.595 130.072 167.595 131.673V140.343C167.595 141.788 167.438 143.057 167.126 144.151C166.813 145.283 166.286 146.221 165.544 146.963C164.841 147.705 163.884 148.271 162.673 148.661C161.502 149.052 160.037 149.247 158.28 149.247H152.246V143.623H157.635C158.885 143.623 159.744 143.252 160.213 142.51C160.682 141.807 160.916 140.616 160.916 138.937V132.317C160.916 129.818 161.385 127.904 162.322 126.576C163.259 125.248 164.783 124.35 166.892 123.881V123.882Z" fill="#FAFAFA"/>
</g>
<defs>
<filter id="filter0_d_315_1568" x="0" y="0.41748" width="255.055" height="255.055" filterUnits="userSpaceOnUse" color-interpolation-filters="sRGB">
<feFlood flood-opacity="0" result="BackgroundImageFix"/>
<feColorMatrix in="SourceAlpha" type="matrix" values="0 0 0 0 0 0 0 0 0 0 0 0 0 0 0 0 0 0 127 0" result="hardAlpha"/>
<feOffset dy="4"/>
<feGaussianBlur stdDeviation="15"/>
<feComposite in2="hardAlpha" operator="out"/>
<feColorMatrix type="matrix" values="0 0 0 0 0.065 0 0 0 0 0.2314 0 0 0 0 0.325 0 0 0 0.25 0"/>
<feBlend mode="normal" in2="BackgroundImageFix" result="effect1_dropShadow_315_1568"/>
<feBlend mode="normal" in="SourceGraphic" in2="effect1_dropShadow_315_1568" result="shape"/>
</filter>
</defs>
</svg>
