<svg width="256" height="256" viewBox="0 0 256 256" fill="none" xmlns="http://www.w3.org/2000/svg">
<g filter="url(#filter0_d_315_1572)">
<path d="M141.356 215.799C133.719 223.437 121.336 223.437 113.699 215.799L35.7295 137.832C28.0901 130.192 28.0902 117.806 35.7296 110.167L113.699 32.2006C121.337 24.5632 133.719 24.5632 141.356 32.2006L219.325 110.167C226.965 117.806 226.965 130.192 219.326 137.832L141.356 215.799Z" fill="#1C2545"/>
<path d="M192.292 123.999C192.292 159.771 163.299 188.763 127.528 188.763C91.7612 188.763 62.7631 159.771 62.7631 123.999C62.7631 88.2305 91.7612 59.2365 127.528 59.2365C163.299 59.2365 192.292 88.2305 192.292 123.999Z" fill="#FAFAFA"/>
<path d="M185.816 123.999C185.816 156.195 159.724 182.281 127.528 182.281C95.3374 182.281 69.2392 156.195 69.2392 123.999C69.2392 91.8064 95.3374 65.709 127.528 65.709C159.724 65.709 185.816 91.8064 185.816 123.999Z" fill="#1C2545"/>
<path d="M111.789 109.971L107.169 105.351C106.484 104.666 105.372 104.666 104.688 105.351L87.4045 122.549C86.7199 123.233 86.7199 124.346 87.4045 125.03L104.688 142.313C105.372 142.997 106.485 142.997 107.169 142.313L111.789 137.693C112.473 137.008 112.473 135.896 111.789 135.212L100.41 123.832L111.789 112.452C112.474 111.767 112.474 110.656 111.789 109.971L111.789 109.971Z" fill="#FAFAFA"/>
<path d="M167.66 122.548L150.377 105.35C149.692 104.666 148.58 104.666 147.896 105.35L143.276 109.97C142.591 110.655 142.591 111.767 143.276 112.451L154.655 123.832L143.276 135.211C142.591 135.896 142.591 137.008 143.276 137.692L147.896 142.312C148.58 142.997 149.693 142.997 150.377 142.312L167.574 125.029C168.346 124.431 168.346 123.232 167.661 122.548L167.66 122.548Z" fill="#FAFAFA"/>
<path d="M136.858 102.869H131.297C130.527 102.869 129.843 103.382 129.586 104.067L116.495 142.398C116.067 143.596 116.923 144.794 118.206 144.794H123.767C124.537 144.794 125.222 144.281 125.479 143.596L138.655 105.265C138.997 104.067 138.142 102.869 136.858 102.869H136.858Z" fill="#FAFAFA"/>
</g>
<defs>
<filter id="filter0_d_315_1572" x="0" y="0.472534" width="255.055" height="255.055" filterUnits="userSpaceOnUse" color-interpolation-filters="sRGB">
<feFlood flood-opacity="0" result="BackgroundImageFix"/>
<feColorMatrix in="SourceAlpha" type="matrix" values="0 0 0 0 0 0 0 0 0 0 0 0 0 0 0 0 0 0 127 0" result="hardAlpha"/>
<feOffset dy="4"/>
<feGaussianBlur stdDeviation="15"/>
<feComposite in2="hardAlpha" operator="out"/>
<feColorMatrix type="matrix" values="0 0 0 0 0.065 0 0 0 0 0.2314 0 0 0 0 0.325 0 0 0 0.25 0"/>
<feBlend mode="normal" in2="BackgroundImageFix" result="effect1_dropShadow_315_1572"/>
<feBlend mode="normal" in="SourceGraphic" in2="effect1_dropShadow_315_1572" result="shape"/>
</filter>
</defs>
</svg>
