<svg width="50" height="50" viewBox="0 0 50 50" fill="none" xmlns="http://www.w3.org/2000/svg">
<g id="acm diamond blue">
<path id="path14" d="M28.5456 48.5313C26.5874 50.4896 23.4126 50.4896 21.4544 48.5313L1.46862 28.5454C-0.489556 26.5872 -0.489538 23.4123 1.46866 21.4541L21.4544 1.46862C23.4126 -0.489544 26.5874 -0.489536 28.5456 1.46862L48.5313 21.4542C50.4895 23.4123 50.4896 26.5872 48.5314 28.5454L28.5456 48.5313Z" fill="#0492D2"/>
<path id="path16" d="M41.6014 24.9998C41.6014 34.1698 34.1696 41.6016 25 41.6016C15.8318 41.6016 8.39856 34.1698 8.39856 24.9998C8.39856 15.8308 15.8318 8.39843 25 8.39843C34.1696 8.39843 41.6014 15.8308 41.6014 24.9998Z" fill="white"/>
<path id="path18" d="M39.9413 24.9997C39.9413 33.253 33.253 39.9399 25 39.9399C16.7485 39.9399 10.0586 33.253 10.0586 24.9997C10.0586 16.7473 16.7485 10.0574 25 10.0574C33.253 10.0574 39.9413 16.7473 39.9413 24.9997Z" fill="#0492D2"/>
<path id="path20" d="M16.3005 26.7881V25.2967C15.9229 25.3349 15.6189 25.3686 15.3868 25.3951C15.1532 25.423 14.924 25.4774 14.7007 25.5582C14.5054 25.626 14.3541 25.7288 14.2454 25.8684C14.1381 26.005 14.0837 26.1901 14.0837 26.4179C14.0837 26.7542 14.1748 26.9834 14.3541 27.1098C14.5333 27.2346 14.7992 27.2963 15.1518 27.2963C15.3457 27.2963 15.5439 27.2522 15.7481 27.1641C15.9509 27.076 16.1345 26.9481 16.3005 26.7881ZM16.3005 27.9089C16.1478 28.0367 16.0097 28.1513 15.8892 28.2526C15.7673 28.357 15.6042 28.4598 15.4 28.5612C15.2002 28.6581 15.0048 28.733 14.8153 28.7815C14.6258 28.83 14.3614 28.8564 14.0206 28.8564C13.386 28.8564 12.8586 28.6434 12.4399 28.2159C12.0198 27.7899 11.8112 27.2522 11.8112 26.603C11.8112 26.0668 11.917 25.6378 12.13 25.3085C12.343 24.9794 12.65 24.7194 13.0496 24.5269C13.455 24.3315 13.9369 24.1949 14.4995 24.1171C15.0621 24.0407 15.6659 23.9804 16.3138 23.9378V23.8996C16.3138 23.503 16.1669 23.2298 15.8759 23.0784C15.5837 22.9263 15.1473 22.8508 14.5626 22.8508C14.2997 22.8508 13.9912 22.8992 13.6372 22.9962C13.2846 23.0932 12.9394 23.2165 12.603 23.3664H12.412V21.6241C12.6338 21.5595 12.9923 21.4846 13.4888 21.3964C13.9839 21.3083 14.4834 21.2642 14.9872 21.2642C16.227 21.2642 17.1305 21.4714 17.6961 21.8841C18.2616 22.2955 18.5452 22.9257 18.5452 23.7718V28.6713H16.3005V27.9089Z" fill="white"/>
<path id="path22" d="M23.4707 28.8564C22.8758 28.8564 22.3308 28.7815 21.8372 28.6316C21.3436 28.4847 20.9147 28.2526 20.5517 27.9397C20.1919 27.6298 19.9113 27.239 19.71 26.7675C19.5088 26.2959 19.4089 25.7406 19.4089 25.0998C19.4089 24.4124 19.5176 23.8277 19.7365 23.3449C19.9539 22.864 20.2492 22.4673 20.6223 22.155C20.9808 21.8568 21.4023 21.635 21.8886 21.4934C22.3749 21.3509 22.8801 21.2781 23.4061 21.2781C23.8042 21.2781 24.2023 21.3245 24.6004 21.417C24.9985 21.5072 25.3981 21.655 25.8006 21.8553V23.7806H25.5112C25.4215 23.6954 25.3114 23.6014 25.1806 23.4986C25.0499 23.3958 24.9075 23.3003 24.7532 23.2151C24.5916 23.1246 24.4065 23.0496 24.2023 22.9874C23.9966 22.9257 23.7674 22.8948 23.5148 22.8948C22.9404 22.8948 22.4968 23.0932 22.1824 23.4927C21.868 23.8908 21.7109 24.4255 21.7109 25.0998C21.7109 25.8199 21.8783 26.3576 22.2147 26.7101C22.5511 27.0627 22.9962 27.242 23.553 27.242C23.8351 27.242 24.0833 27.2081 24.2978 27.145C24.5123 27.0833 24.6959 27.0054 24.8501 26.9173C25 26.8277 25.1278 26.7366 25.235 26.6397C25.3423 26.5457 25.4348 26.459 25.5112 26.384H25.8006V28.3011C25.6713 28.357 25.5229 28.4201 25.354 28.4935C25.1851 28.5641 25.0132 28.6228 24.8384 28.6713C24.6195 28.7315 24.4153 28.7771 24.2244 28.8079C24.0348 28.8388 23.7822 28.8564 23.4707 28.8564Z" fill="white"/>
<path id="path24" d="M35.5872 28.6714V25.0735C35.5872 24.7194 35.5798 24.4197 35.5681 24.1759C35.5548 23.9334 35.5166 23.7337 35.452 23.5794C35.3873 23.4267 35.2875 23.3135 35.1523 23.2437C35.0172 23.1725 34.8277 23.1372 34.5823 23.1372C34.412 23.1372 34.2415 23.1754 34.0755 23.248C33.9081 23.3244 33.7244 23.4311 33.5276 23.5677V28.6714H31.2829V25.0735C31.2829 24.7238 31.2756 24.4256 31.2609 24.1788C31.2447 23.9334 31.2066 23.7337 31.1419 23.5794C31.0773 23.4267 30.9774 23.3135 30.8422 23.2437C30.7071 23.1725 30.519 23.1372 30.2796 23.1372C30.096 23.1372 29.9153 23.1799 29.739 23.2651C29.5627 23.3517 29.3908 23.4522 29.2248 23.5677V28.6714H26.9802V21.4788H29.2248V22.272C29.5906 21.9591 29.9373 21.7167 30.262 21.5419C30.5866 21.3656 30.9509 21.2781 31.3564 21.2781C31.7971 21.2781 32.1835 21.3832 32.5154 21.5924C32.8489 21.802 33.103 22.1133 33.2779 22.5276C33.7098 22.1266 34.1167 21.8181 34.4986 21.6021C34.8805 21.3862 35.2683 21.2781 35.6606 21.2781C35.9941 21.2781 36.2923 21.3324 36.5567 21.4391C36.8226 21.5463 37.0459 21.7055 37.2295 21.9194C37.4307 22.15 37.5806 22.4239 37.6805 22.7427C37.7818 23.0609 37.8318 23.4766 37.8318 23.9878V28.6714H35.5872Z" fill="white"/>
</g>
</svg>
